<svg width="60" height="60" viewBox="0 0 60 60" fill="none" xmlns="http://www.w3.org/2000/svg">
<path d="M30 0C13.4269 0 0 13.4269 0 30C0 46.5731 13.4269 60 30 60C46.5731 60 60 46.5731 60 30C60 13.4269 46.5731 0 30 0ZM17.4019 19.2C19.2863 19.2 20.7525 20.5744 20.9175 22.1981C21.0956 23.6625 20.4881 24.9431 18.8681 25.7137C18.0075 26.1431 17.6663 26.1431 17.49 25.8881C17.4019 25.7138 17.49 25.5487 17.6644 25.3706C19.2094 24.0938 19.2094 23.0588 19.0312 21.6038C18.9431 20.6569 18.2606 20.0588 17.5763 20.0588C14.5687 20.0588 10.2919 26.7394 10.8863 31.6313C11.1506 33.5156 12.2644 35.7431 14.6569 35.7431C15.4294 35.7431 16.29 35.4881 17.0588 35.1488C18.3094 34.4831 19.0613 33.9769 19.8038 33.1462C19.6181 30.9281 21.5606 28.0294 24.4312 28.0294C25.7212 28.0294 26.7469 28.5469 26.8331 29.4937C27 30.7744 25.8862 30.9488 25.545 30.9488C25.2037 30.9488 24.5981 30.8606 24.5981 30.5194C24.5213 30.1763 25.3687 30.345 25.29 29.5725C25.2019 29.055 24.6844 28.89 24.1781 28.89C22.3706 28.89 21.345 31.38 21.6 32.9119C21.6881 33.6037 22.0275 34.29 22.7231 34.29C23.2313 34.29 24.0037 33.5175 24.255 32.4056C24.4294 31.6331 25.1156 31.1156 25.7194 31.1156C25.9744 31.1156 26.1394 31.2037 26.2275 31.545V31.8881C26.1506 32.2313 25.8844 33.2663 25.9744 33.5175C25.9744 33.6956 26.0625 33.9469 26.4019 33.9469C26.6269 33.9469 27.4875 33.4969 28.3463 32.7938C28.6294 31.3181 28.9706 29.5519 28.9706 29.4056C29.0588 28.8 29.3138 28.2038 30.5138 28.2038C30.7763 28.2038 30.9431 28.2919 31.0312 28.6331V28.9763L30.6881 30.5194C31.8038 29.0644 33.4331 28.0388 34.4588 28.0388C34.8881 28.0388 35.2313 28.2919 35.2313 28.7213C35.2313 28.9762 35.2313 29.4056 35.0531 29.8369C34.7137 30.7744 34.2825 32.2388 34.0275 33.5175C34.0275 33.8606 34.1156 34.2019 34.545 34.2019C34.9744 34.2019 36.255 33.6937 37.2806 32.3175L37.3012 32.3081C37.3012 32.1413 37.2806 31.9762 37.2806 31.8112C37.2806 30.7762 37.3688 29.9269 37.545 29.3212C37.7194 28.6369 38.5706 28.0406 39.0881 28.0406C39.3413 28.0406 39.6056 28.2056 39.6056 28.4606C39.6056 28.5487 39.6056 28.7231 39.5175 28.8038C39.1744 29.9269 38.91 30.9506 38.91 31.9763C38.91 32.5819 39 33.4313 39.1744 33.9488C39.1744 34.0369 39.2513 34.1231 39.3394 34.1231C39.5175 34.1231 40.7175 33.0112 41.5669 31.545C40.7944 31.0369 40.365 30.1781 40.365 29.1525C40.365 27.3469 41.49 26.4075 42.5156 26.4075C43.3762 26.4075 44.0588 27.0056 44.0588 28.2056C44.0588 28.9781 43.8038 29.8387 43.3763 30.6075H43.6294C44.1769 30.6281 44.715 30.4031 45.0844 30.0131C45.166 29.8827 45.2858 29.7806 45.4275 29.7206C46.2675 28.6556 47.4975 27.8663 48.9525 27.8663C50.1525 27.8663 51.2569 28.3837 51.345 29.3212C51.5194 30.6094 50.3981 30.8644 50.055 30.8644C49.7156 30.8644 49.11 30.7763 49.11 30.435C49.11 30.0938 49.8806 30.2606 49.8019 29.4975C49.7138 28.98 49.1963 28.8056 48.6787 28.8056C46.9688 28.8056 45.8569 31.0312 46.1081 32.8387C46.1963 33.5213 46.5375 34.2938 47.2238 34.2938C47.7413 34.2938 48.5119 33.5212 48.8531 32.4094C49.0181 31.7269 49.7137 31.1194 50.3081 31.1194C50.5706 31.1194 50.7375 31.2075 50.8256 31.5487C50.8256 31.7269 50.8256 32.0662 50.4825 33.1819C50.0531 33.9525 50.0531 34.3819 50.1431 34.725C50.22 35.4075 50.5631 35.925 50.9137 36.18C50.9761 36.2597 51.0319 36.3444 51.0806 36.4331C51.0806 36.6112 50.9906 36.7856 50.7375 36.7856C50.6494 36.7856 50.5706 36.7856 50.4825 36.6975C49.1944 36.18 48.6769 35.3194 48.51 34.4606C47.9925 35.0662 47.3981 35.4075 46.7044 35.4075C45.5887 35.4075 44.4862 34.3819 44.3119 33.0919C44.26 32.5448 44.3233 31.993 44.4975 31.4719C43.9894 31.7944 43.4419 31.98 42.9356 31.98H42.5156C41.3925 33.6094 40.1906 34.725 39.3413 35.2331C39.0488 35.3893 38.7255 35.479 38.3944 35.4956C38.2294 35.4956 37.9669 35.4075 37.8862 35.2331C37.6444 34.8525 37.4963 34.2562 37.3988 33.5737C36.1969 34.8806 34.5356 35.5838 33.7669 35.5838C32.9062 35.5838 32.4 35.0662 32.3119 34.2094V33.2719C32.565 31.3875 33.2588 30.2644 33.2588 29.9212C33.2537 29.8761 33.2333 29.8341 33.2008 29.8023C33.1683 29.7705 33.1259 29.7509 33.0806 29.7469C32.4862 29.7469 30.5138 31.8075 30.1706 33.1838L29.9081 34.2956C29.7413 35.0662 28.9706 35.5838 28.4531 35.5838C28.1981 35.5838 28.0238 35.4956 27.945 35.1562V34.8131L28.0519 34.2281C26.9663 34.9987 25.8825 35.4956 25.365 35.4956C24.5944 35.4956 24.165 35.0662 24.0881 34.4606C23.5706 35.1562 22.9725 35.4956 22.2038 35.4956C21.3131 35.4956 20.4562 34.89 20.0456 34.0125C19.4287 34.7044 18.735 35.3981 17.9156 35.925C16.7156 36.6975 15.3488 37.2919 13.7156 37.2919C12.2606 37.2919 10.9725 36.5194 10.2881 35.8369C9.25313 34.89 8.65875 33.435 8.57063 32.0662C8.0625 27.8681 10.6313 22.4663 14.565 20.0644C15.5119 19.5469 16.4606 19.2075 17.3981 19.2075L17.4019 19.2ZM41.8256 27.4331C41.5725 27.4331 41.3981 27.8625 41.3981 28.2806C41.3981 28.9762 41.7375 29.745 42.1688 30.1763C42.3411 29.7071 42.4305 29.2116 42.4331 28.7119C42.4331 27.8644 42.09 27.435 41.8256 27.435V27.4331Z" fill="black" fill-opacity="0.5"/>
</svg>
