<svg width="61" height="60" viewBox="0 0 61 60" fill="none" xmlns="http://www.w3.org/2000/svg">
<path d="M40.8325 45.4275V42.65L40.7775 42.675C40.1525 42.9775 39.4725 43.15 38.775 43.1825C38.0539 43.2343 37.3383 43.0239 36.76 42.59C36.3488 42.2723 36.0423 41.8386 35.88 41.345C35.7035 40.8058 35.6836 40.2276 35.8225 39.6775C35.9525 39.115 36.2675 38.6125 36.715 38.255C37.115 37.92 37.6025 37.71 38.12 37.65C39.0337 37.5477 39.9572 37.72 40.7725 38.145L40.8325 38.1775V35.385L40.705 35.35C39.8886 35.0916 39.0329 34.9799 38.1775 35.02C37.3979 35.0368 36.6298 35.212 35.92 35.535C35.2025 35.865 34.57 36.3525 34.0725 36.9625C33.313 37.9212 32.8915 39.1039 32.8734 40.3268C32.8554 41.5497 33.2417 42.7443 33.9725 43.725C34.71 44.67 35.745 45.3375 36.91 45.615C38.1375 45.915 39.425 45.87 40.6275 45.485L40.8325 45.4275ZM13.345 45.4275V42.65L13.29 42.675C12.665 42.9775 11.985 43.15 11.2875 43.1825C10.5659 43.2389 9.84873 43.028 9.2725 42.59C8.86114 42.273 8.55526 41.839 8.395 41.345C8.21772 40.806 8.19691 40.2278 8.335 39.6775C8.465 39.115 8.7775 38.6125 9.2275 38.255C9.6275 37.92 10.115 37.71 10.6325 37.65C11.5462 37.5477 12.4697 37.72 13.285 38.145L13.345 38.1775V35.385L13.2175 35.35C12.4011 35.0916 11.5454 34.9799 10.69 35.02C9.91036 35.0368 9.14229 35.212 8.4325 35.535C7.71643 35.8658 7.0841 36.3537 6.5825 36.9625C5.82427 37.9216 5.40331 39.1039 5.38478 40.3264C5.36626 41.5489 5.75119 42.7434 6.48 43.725C7.21538 44.6723 8.2529 45.3393 9.42 45.615C10.6475 45.915 11.9325 45.87 13.1375 45.485L13.345 45.4275ZM23.155 43.1225L23.145 45.515L23.32 45.545C23.87 45.6467 24.4233 45.7175 24.98 45.7575C25.4683 45.8042 25.9575 45.8142 26.4475 45.7875C26.9175 45.7525 27.3767 45.6658 27.825 45.5275C28.35 45.3775 28.8375 45.12 29.2525 44.765C29.6271 44.444 29.9137 44.0327 30.085 43.57C30.3856 42.7971 30.3793 41.9385 30.0675 41.17C29.9037 40.7714 29.6485 40.4169 29.3225 40.135C29.0029 39.8527 28.6308 39.6361 28.2275 39.4975L26.4225 38.8275C26.2084 38.7333 26.0341 38.567 25.93 38.3575C25.8915 38.2707 25.8733 38.1763 25.8768 38.0815C25.8803 37.9866 25.9053 37.8938 25.95 37.81C26.0445 37.6596 26.1774 37.537 26.335 37.455C26.5373 37.3577 26.7545 37.2952 26.9775 37.27C27.3608 37.2133 27.7442 37.2175 28.1275 37.2825C28.5775 37.3325 29.0217 37.4125 29.46 37.5225L29.555 37.5425V35.335L29.3825 35.2975C28.9348 35.1918 28.4816 35.1108 28.025 35.055C27.4328 34.9763 26.8329 34.9738 26.24 35.0475C25.49 35.115 24.7775 35.405 24.1875 35.8725C23.7875 36.1875 23.485 36.605 23.31 37.0825C23.05 37.8075 23.0475 38.6025 23.31 39.33C23.4467 39.695 23.6567 40.0125 23.94 40.2825C24.1833 40.5158 24.4558 40.7125 24.7575 40.8725C25.1508 41.0825 25.565 41.245 26 41.36C26.1433 41.4033 26.285 41.4483 26.425 41.495L26.6375 41.5725L26.6975 41.5975C26.9075 41.6725 27.1025 41.7925 27.2625 41.9475C27.3758 42.0542 27.46 42.18 27.515 42.325C27.5525 42.4564 27.5534 42.5956 27.5175 42.7275C27.4497 42.9407 27.3006 43.1185 27.1025 43.2225C26.8864 43.3306 26.6542 43.4032 26.415 43.4375C26.0621 43.4931 25.7042 43.5107 25.3475 43.49C24.8802 43.4545 24.4153 43.3927 23.955 43.305C23.7149 43.2531 23.4757 43.1973 23.2375 43.1375L23.155 43.1225ZM16.9675 45.61H19.5925V35.1925H16.9675V45.61ZM47.3725 38.27C47.6513 38.0429 47.9722 37.8729 48.3168 37.7698C48.6613 37.6667 49.0228 37.6326 49.3806 37.6693C49.7384 37.7059 50.0854 37.8128 50.4019 37.9836C50.7183 38.1545 50.9981 38.386 51.225 38.665C51.4526 38.9436 51.623 39.2643 51.7265 39.6088C51.8299 39.9533 51.8644 40.3148 51.828 40.6727C51.7915 41.0305 51.6848 41.3777 51.514 41.6943C51.3432 42.0108 51.1116 42.2906 50.8325 42.5175L50.79 42.5525C50.2206 42.9891 49.5027 43.1849 48.7905 43.0979C48.0783 43.0109 47.4287 42.648 46.9811 42.0872C46.5336 41.5264 46.3239 40.8124 46.3971 40.0987C46.4702 39.3849 46.8205 38.7283 47.3725 38.27ZM43.56 40.405C43.5727 41.2181 43.7662 42.0182 44.1264 42.7473C44.4865 43.4765 45.0044 44.1163 45.6424 44.6205C46.2804 45.1248 47.0226 45.4808 47.8152 45.6627C48.6078 45.8447 49.4309 45.848 50.225 45.6725C51.2906 45.4709 52.2697 44.95 53.0325 44.179C53.7952 43.408 54.3055 42.4234 54.4956 41.3556C54.6857 40.2879 54.5466 39.1876 54.0969 38.2007C53.6472 37.2139 52.908 36.3871 51.9775 35.83C51.1502 35.3186 50.2025 35.0349 49.2303 35.0078C48.2581 34.9806 47.296 35.211 46.4414 35.6754C45.5869 36.1398 44.8703 36.8219 44.3643 37.6525C43.8583 38.4831 43.5808 39.4327 43.56 40.405ZM57.4075 26.82C57.4222 27.1546 57.5654 27.4706 57.8074 27.7022C58.0493 27.9338 58.3713 28.063 58.7062 28.063C59.0412 28.063 59.3632 27.9338 59.6051 27.7022C59.8471 27.4706 59.9903 27.1546 60.005 26.82V23.9325C59.9903 23.5979 59.8471 23.2819 59.6051 23.0503C59.3632 22.8188 59.0412 22.6895 58.7062 22.6895C58.3713 22.6895 58.0493 22.8188 57.8074 23.0503C57.5654 23.2819 57.4222 23.5979 57.4075 23.9325V26.82ZM50.2975 26.82C50.3224 27.1481 50.4703 27.4546 50.7116 27.6782C50.9529 27.9019 51.2698 28.0262 51.5988 28.0262C51.9277 28.0262 52.2446 27.9019 52.4859 27.6782C52.7272 27.4546 52.8751 27.1481 52.9 26.82V20.3475C52.8795 20.0167 52.7336 19.7061 52.492 19.4791C52.2505 19.2521 51.9315 19.1257 51.6 19.1257C51.2685 19.1257 50.9495 19.2521 50.708 19.4791C50.4664 19.7061 50.3205 20.0167 50.3 20.3475L50.2975 26.82ZM43.0825 29.4275C43.1074 29.7549 43.255 30.0608 43.4958 30.284C43.7367 30.5072 44.0529 30.6312 44.3813 30.6312C44.7096 30.6312 45.0258 30.5072 45.2667 30.284C45.5075 30.0608 45.6551 29.7549 45.68 29.4275V15.425C45.6653 15.0904 45.5221 14.7744 45.2801 14.5428C45.0382 14.3113 44.7162 14.182 44.3813 14.182C44.0463 14.182 43.7243 14.3113 43.4824 14.5428C43.2404 14.7744 43.0972 15.0904 43.0825 15.425V29.4275ZM35.9875 26.82C36.008 27.1509 36.1539 27.4614 36.3955 27.6884C36.637 27.9155 36.956 28.0419 37.2875 28.0419C37.619 28.0419 37.938 27.9155 38.1795 27.6884C38.4211 27.4614 38.567 27.1509 38.5875 26.82V20.3475C38.5728 20.0129 38.4296 19.6969 38.1876 19.4653C37.9457 19.2338 37.6237 19.1045 37.2887 19.1045C36.9538 19.1045 36.6318 19.2338 36.3899 19.4653C36.1479 19.6969 36.0047 20.0129 35.99 20.3475L35.9875 26.82ZM28.7375 26.82C28.7692 27.1425 28.9197 27.4416 29.1597 27.6593C29.3998 27.8769 29.7122 27.9974 30.0362 27.9974C30.3603 27.9974 30.6727 27.8769 30.9128 27.6593C31.1528 27.4416 31.3033 27.1425 31.335 26.82V23.9325C31.3203 23.5979 31.1771 23.2819 30.9351 23.0503C30.6932 22.8188 30.3712 22.6895 30.0362 22.6895C29.7013 22.6895 29.3793 22.8188 29.1374 23.0503C28.8954 23.2819 28.7522 23.5979 28.7375 23.9325V26.82ZM21.5625 26.82C21.5772 27.1546 21.7204 27.4706 21.9624 27.7022C22.2043 27.9338 22.5263 28.063 22.8612 28.063C23.1962 28.063 23.5182 27.9338 23.7601 27.7022C24.0021 27.4706 24.1453 27.1546 24.16 26.82V20.3475C24.1453 20.0129 24.0021 19.6969 23.7601 19.4653C23.5182 19.2338 23.1962 19.1045 22.8612 19.1045C22.5263 19.1045 22.2043 19.2338 21.9624 19.4653C21.7204 19.6969 21.5772 20.0129 21.5625 20.3475V26.82ZM14.345 29.4275C14.3597 29.7621 14.5029 30.0781 14.7449 30.3097C14.9868 30.5413 15.3088 30.6705 15.6437 30.6705C15.9787 30.6705 16.3007 30.5413 16.5426 30.3097C16.7846 30.0781 16.9278 29.7621 16.9425 29.4275V15.425C16.9278 15.0904 16.7846 14.7744 16.5426 14.5428C16.3007 14.3113 15.9787 14.182 15.6437 14.182C15.3088 14.182 14.9868 14.3113 14.7449 14.5428C14.5029 14.7744 14.3597 15.0904 14.345 15.425V29.4275ZM7.1925 26.82C7.22104 27.1451 7.37035 27.4477 7.611 27.6682C7.85164 27.8886 8.16615 28.0109 8.4925 28.0109C8.81885 28.0109 9.13336 27.8886 9.374 27.6682C9.61465 27.4477 9.76396 27.1451 9.7925 26.82V20.3475C9.77782 20.0129 9.63457 19.6969 9.39261 19.4653C9.15066 19.2338 8.82866 19.1045 8.49375 19.1045C8.15884 19.1045 7.83684 19.2338 7.59489 19.4653C7.35293 19.6969 7.20968 20.0129 7.195 20.3475L7.1925 26.82ZM0 26.82C0.0248979 27.1474 0.172532 27.4533 0.413351 27.6765C0.654169 27.8997 0.970402 28.0237 1.29875 28.0237C1.6271 28.0237 1.94333 27.8997 2.18415 27.6765C2.42497 27.4533 2.5726 27.1474 2.5975 26.82V23.9325C2.58282 23.5979 2.43957 23.2819 2.19761 23.0503C1.95566 22.8188 1.63366 22.6895 1.29875 22.6895C0.963836 22.6895 0.641843 22.8188 0.399888 23.0503C0.157932 23.2819 0.0146834 23.5979 0 23.9325V26.82Z" fill="black" fill-opacity="0.5"/>
</svg>
