<svg width="40" height="60" viewBox="0 0 40 60" fill="none" xmlns="http://www.w3.org/2000/svg">
<path d="M9.77078 0H19.4931V19.4449H9.7709C-3.05058 18.9437 -3.18008 0.526406 9.77078 0ZM9.77078 39.7215H19.4931V20.2766H9.7709C-3.17996 20.803 -3.05058 39.2203 9.77078 39.7215ZM30.0474 0H20.3248V19.4449H30.0474C43.0414 18.7495 42.8794 0.396914 30.0474 0ZM19.4931 50.2758V40.5532H9.7709C1.83707 40.5532 -3.17996 49.8551 2.33781 56.5362C7.5986 63.1583 19.4932 59.8568 19.4932 50.2758M39.7896 29.9991C39.7896 22.5272 31.6454 17.8321 25.1652 21.568C18.6851 25.3039 18.685 34.6943 25.1652 38.4302C31.6455 42.1662 39.7896 37.4709 39.7896 29.9991Z" fill="black" fill-opacity="0.5"/>
</svg>
