<svg width="111" height="47" viewBox="0 0 111 47" fill="none" xmlns="http://www.w3.org/2000/svg">
<path d="M111 10.0355H103.744L108.875 4.90392L106.096 2.12536L100.966 7.25567V0H97.0355V7.25567L91.9051 2.12536L89.1254 4.90392L94.2569 10.0355H87V13.9645H94.2569L89.1254 19.0961L91.9051 21.8746L97.0355 16.7431V24H100.966V16.7431L106.096 21.8746L108.875 19.0961L103.744 13.9645H111V10.0355Z" fill="#282828"/>
<path d="M0.936 34L8.712 8.44H12.888L20.664 34H17.352L10.8 11.248L4.248 34H0.936ZM4.86 26.728L5.94 23.704H15.66L16.74 26.728H4.86ZM33.1419 38.104C31.2939 38.104 29.6499 37.636 28.2099 36.7C26.7699 35.788 25.5459 34.564 24.5379 33.028C23.5539 31.492 22.7979 29.788 22.2699 27.916C21.7659 26.02 21.5139 24.112 21.5139 22.192C21.5139 20.512 21.7179 18.892 22.1259 17.332C22.5339 15.772 23.1699 14.38 24.0339 13.156C24.8979 11.908 25.9779 10.924 27.2739 10.204C28.5939 9.484 30.1539 9.124 31.9539 9.124C33.6819 9.124 35.0859 9.436 36.1659 10.06C37.2699 10.684 38.0859 11.488 38.6139 12.472C39.1419 13.456 39.4059 14.488 39.4059 15.568C39.4059 16.648 39.1539 17.704 38.6499 18.736C38.1459 19.744 37.4139 20.584 36.4539 21.256C35.5179 21.904 34.3659 22.252 32.9979 22.3C32.7819 22.3 32.6739 22.252 32.6739 22.156C32.6739 21.964 32.9019 21.844 33.3579 21.796C34.3419 21.772 35.1819 21.484 35.8779 20.932C36.5739 20.356 37.1019 19.636 37.4619 18.772C37.8219 17.884 38.0019 16.96 38.0019 16C38.0019 14.968 37.7739 13.972 37.3179 13.012C36.8859 12.052 36.2019 11.26 35.2659 10.636C34.3299 10.012 33.1299 9.7 31.6659 9.7C30.2019 9.7 28.9419 10.024 27.8859 10.672C26.8299 11.32 25.9539 12.208 25.2579 13.336C24.5859 14.44 24.0819 15.7 23.7459 17.116C23.4099 18.532 23.2419 20.02 23.2419 21.58C23.2419 23.476 23.4699 25.36 23.9259 27.232C24.4059 29.104 25.0899 30.82 25.9779 32.38C26.8659 33.916 27.9459 35.14 29.2179 36.052C30.4899 36.988 31.9419 37.456 33.5739 37.456C34.6779 37.456 35.6979 37.204 36.6339 36.7C37.5699 36.22 38.3259 35.476 38.9019 34.468C39.5019 33.484 39.8019 32.248 39.8019 30.76C39.8019 30.232 39.7659 29.68 39.6939 29.104C39.6219 28.528 39.4899 27.916 39.2979 27.268C39.2739 27.196 39.2619 27.112 39.2619 27.016C39.2619 26.848 39.3099 26.764 39.4059 26.764C39.5259 26.764 39.6339 26.884 39.7299 27.124C40.1859 28.492 40.4139 29.776 40.4139 30.976C40.4139 32.392 40.1139 33.628 39.5139 34.684C38.9139 35.764 38.0739 36.604 36.9939 37.204C35.9139 37.804 34.6299 38.104 33.1419 38.104ZM50.7876 36.376C49.2756 36.376 47.8596 36.064 46.5396 35.44C45.2196 34.816 44.1516 33.808 43.3356 32.416C42.5436 31.024 42.1476 29.188 42.1476 26.908C42.1476 26.404 42.1596 25.888 42.1836 25.36C42.2316 24.808 42.3036 24.244 42.3996 23.668C42.2316 23.644 42.0636 23.644 41.8956 23.668C41.7276 23.668 41.5836 23.668 41.4636 23.668C41.2476 23.668 41.0796 23.62 40.9596 23.524C40.8396 23.428 40.7676 23.224 40.7436 22.912C40.7436 22.576 40.8156 22.264 40.9596 21.976C41.1276 21.688 41.2956 21.64 41.4636 21.832C41.7276 22.048 42.2076 22.18 42.9036 22.228C43.3836 20.548 44.1036 19 45.0636 17.584C46.0476 16.168 47.1636 14.896 48.4116 13.768C49.6836 12.616 50.9916 11.644 52.3356 10.852C53.7036 10.036 55.0116 9.424 56.2596 9.016C57.5076 8.584 58.6116 8.368 59.5716 8.368C60.3876 8.368 61.0356 8.536 61.5156 8.872C62.0196 9.208 62.2716 9.736 62.2716 10.456C62.2716 10.768 62.2236 11.08 62.1276 11.392C61.9356 12.208 61.6236 12.856 61.1916 13.336C60.7836 13.816 60.4836 14.056 60.2916 14.056C60.1716 14.056 60.1116 13.996 60.1116 13.876C60.1116 13.756 60.2076 13.504 60.3996 13.12C60.7596 12.472 60.9396 11.908 60.9396 11.428C60.9396 10.828 60.6996 10.384 60.2196 10.096C59.7396 9.784 59.1036 9.628 58.3116 9.628C57.3036 9.628 56.1396 9.88 54.8196 10.384C53.4996 10.888 52.1556 11.656 50.7876 12.688C49.4196 13.696 48.1596 14.992 47.0076 16.576C45.8796 18.136 45.0036 19.996 44.3796 22.156C44.8356 22.108 45.3036 22.06 45.7836 22.012C46.2636 21.94 46.6956 21.856 47.0796 21.76C50.2476 21.064 52.6356 20.572 54.2436 20.284C55.8756 19.972 56.8956 19.816 57.3036 19.816C57.6636 19.816 57.6396 19.9 57.2316 20.068C56.8236 20.236 56.1276 20.476 55.1436 20.788C54.1836 21.076 53.0076 21.4 51.6156 21.76C50.2236 22.096 48.7116 22.444 47.0796 22.804C46.6716 22.9 46.1916 23.02 45.6396 23.164C45.1116 23.308 44.5716 23.44 44.0196 23.56C43.8756 24.592 43.8036 25.564 43.8036 26.476C43.8036 28.636 44.1636 30.388 44.8836 31.732C45.6036 33.052 46.5516 34.012 47.7276 34.612C48.9036 35.236 50.1756 35.548 51.5436 35.548C52.9356 35.548 54.3156 35.272 55.6836 34.72C57.0756 34.168 58.3356 33.4 59.4636 32.416C60.5916 31.408 61.4436 30.244 62.0196 28.924C62.2356 28.468 62.4276 28.24 62.5956 28.24C62.7156 28.24 62.7756 28.336 62.7756 28.528C62.7756 28.648 62.7396 28.816 62.6676 29.032C62.3076 30.088 61.7196 31.072 60.9036 31.984C60.0876 32.872 59.1276 33.64 58.0236 34.288C56.9196 34.96 55.7436 35.476 54.4956 35.836C53.2476 36.196 52.0116 36.376 50.7876 36.376ZM59.6064 38.212C59.3424 38.212 59.1264 38.128 58.9584 37.96C58.7664 37.816 58.6704 37.612 58.6704 37.348C58.6704 37.012 58.8384 36.616 59.1744 36.16C59.4864 35.704 60.0144 35.2 60.7584 34.648C60.8784 34.336 60.9624 34.048 61.0104 33.784C61.0824 33.52 61.1424 33.232 61.1904 32.92C61.3584 31.864 61.6584 30.796 62.0904 29.716C62.5224 28.612 62.9544 27.58 63.3864 26.62C62.9304 26.524 62.4744 26.164 62.0184 25.54C61.5864 24.916 61.3704 24.256 61.3704 23.56C61.3704 23.392 61.4064 23.116 61.4784 22.732C61.5504 22.324 61.6704 22.12 61.8384 22.12C62.0544 22.12 62.1624 22.3 62.1624 22.66C62.1624 23.02 62.1624 23.272 62.1624 23.416C62.1624 23.92 62.3064 24.424 62.5944 24.928C62.8824 25.432 63.2304 25.792 63.6384 26.008C64.0464 25.12 64.5624 24.076 65.1864 22.876C65.8104 21.652 66.5184 20.368 67.3104 19.024C68.1024 17.656 68.9664 16.324 69.9024 15.028C70.8384 13.732 71.8224 12.556 72.8544 11.5C73.9104 10.444 75.0024 9.604 76.1304 8.98C77.2584 8.356 78.4104 8.044 79.5864 8.044C80.5464 8.044 81.2424 8.296 81.6744 8.8C82.1064 9.28 82.3224 9.94 82.3224 10.78C82.3224 11.668 82.1064 12.688 81.6744 13.84C81.2424 14.992 80.6304 16.192 79.8384 17.44C79.0704 18.664 78.1704 19.864 77.1384 21.04C76.1064 22.192 74.9784 23.248 73.7544 24.208C72.5304 25.144 71.2584 25.888 69.9384 26.44C68.6184 26.992 67.2984 27.268 65.9784 27.268C65.7144 27.268 65.4504 27.256 65.1864 27.232C64.9224 27.184 64.6704 27.112 64.4304 27.016C63.9504 28.144 63.5064 29.272 63.0984 30.4C62.6904 31.528 62.3664 32.704 62.1264 33.928C63.9744 32.8 65.9784 31.984 68.1384 31.48C70.2984 30.976 72.4584 30.724 74.6184 30.724C75.1944 30.724 75.8544 30.832 76.5984 31.048C77.3424 31.24 77.9784 31.552 78.5064 31.984C79.0584 32.416 79.3344 33.004 79.3344 33.748C79.3344 34.348 79.2744 34.648 79.1544 34.648C79.0344 34.648 78.8904 34.432 78.7224 34C78.3864 33.136 77.8584 32.596 77.1384 32.38C76.4184 32.14 75.6264 32.02 74.7624 32.02C73.2984 32.02 72.0384 32.092 70.9824 32.236C69.9504 32.356 68.9904 32.548 68.1024 32.812C67.2384 33.076 66.3384 33.4 65.4024 33.784C64.4664 34.168 63.3624 34.612 62.0904 35.116C61.8984 36.22 61.5384 37.012 61.0104 37.492C60.5064 37.972 60.0384 38.212 59.6064 38.212ZM65.7984 26.62C67.0704 26.62 68.3304 26.344 69.5784 25.792C70.8504 25.216 72.0624 24.46 73.2144 23.524C74.3904 22.564 75.4704 21.508 76.4544 20.356C77.4384 19.204 78.2904 18.04 79.0104 16.864C79.7544 15.664 80.3304 14.536 80.7384 13.48C81.1464 12.4 81.3504 11.488 81.3504 10.744C81.3504 10.192 81.2184 9.76 80.9544 9.448C80.7144 9.136 80.3304 8.98 79.8024 8.98C78.9144 8.98 77.9784 9.292 76.9944 9.916C76.0344 10.54 75.0504 11.38 74.0424 12.436C73.0344 13.492 72.0504 14.656 71.0904 15.928C70.1544 17.2 69.2664 18.496 68.4264 19.816C67.6104 21.112 66.8784 22.348 66.2304 23.524C65.5824 24.676 65.0784 25.648 64.7184 26.44C64.8384 26.512 65.0184 26.56 65.2584 26.584C65.4984 26.608 65.6784 26.62 65.7984 26.62Z" fill="black"/>
</svg>
