<svg width="179" height="48" viewBox="0 0 179 48" fill="none" xmlns="http://www.w3.org/2000/svg">
<g filter="url(#filter0_diiiii_80_236)">
<path d="M0 6.4C0 4.15979 0 3.03968 0.435974 2.18404C0.819467 1.43139 1.43139 0.819467 2.18404 0.435974C3.03968 0 4.15979 0 6.4 0H172.6C174.84 0 175.96 0 176.816 0.435974C177.569 0.819467 178.181 1.43139 178.564 2.18404C179 3.03968 179 4.15979 179 6.4V40.6C179 42.8402 179 43.9603 178.564 44.816C178.181 45.5686 177.569 46.1805 176.816 46.564C175.96 47 174.84 47 172.6 47H6.39999C4.15979 47 3.03968 47 2.18404 46.564C1.43139 46.1805 0.819467 45.5686 0.435974 44.816C0 43.9603 0 42.8402 0 40.6V6.4Z" fill="url(#paint0_linear_80_236)"/>
<path d="M0 6.4C0 4.15979 0 3.03968 0.435974 2.18404C0.819467 1.43139 1.43139 0.819467 2.18404 0.435974C3.03968 0 4.15979 0 6.4 0H172.6C174.84 0 175.96 0 176.816 0.435974C177.569 0.819467 178.181 1.43139 178.564 2.18404C179 3.03968 179 4.15979 179 6.4V40.6C179 42.8402 179 43.9603 178.564 44.816C178.181 45.5686 177.569 46.1805 176.816 46.564C175.96 47 174.84 47 172.6 47H6.39999C4.15979 47 3.03968 47 2.18404 46.564C1.43139 46.1805 0.819467 45.5686 0.435974 44.816C0 43.9603 0 42.8402 0 40.6V6.4Z" fill="url(#paint1_linear_80_236)"/>
<path d="M0 6.4C0 4.15979 0 3.03968 0.435974 2.18404C0.819467 1.43139 1.43139 0.819467 2.18404 0.435974C3.03968 0 4.15979 0 6.4 0H172.6C174.84 0 175.96 0 176.816 0.435974C177.569 0.819467 178.181 1.43139 178.564 2.18404C179 3.03968 179 4.15979 179 6.4V40.6C179 42.8402 179 43.9603 178.564 44.816C178.181 45.5686 177.569 46.1805 176.816 46.564C175.96 47 174.84 47 172.6 47H6.39999C4.15979 47 3.03968 47 2.18404 46.564C1.43139 46.1805 0.819467 45.5686 0.435974 44.816C0 43.9603 0 42.8402 0 40.6V6.4Z" fill="url(#paint2_linear_80_236)"/>
<path d="M6.40039 0.5H172.6C173.728 0.5 174.545 0.500287 175.187 0.552734C175.823 0.604706 176.243 0.705753 176.589 0.881836C177.247 1.21738 177.783 1.75262 178.118 2.41113C178.294 2.75672 178.395 3.17741 178.447 3.81348C178.5 4.4554 178.5 5.27204 178.5 6.40039V40.5996C178.5 41.728 178.5 42.5446 178.447 43.1865C178.395 43.8226 178.294 44.2433 178.118 44.5889C177.783 45.2474 177.247 45.7826 176.589 46.1182C176.243 46.2942 175.823 46.3953 175.187 46.4473C174.545 46.4997 173.728 46.5 172.6 46.5H6.40039C5.27204 46.5 4.4554 46.4997 3.81348 46.4473C3.17741 46.3953 2.75672 46.2942 2.41113 46.1182C1.75262 45.7826 1.21738 45.2474 0.881836 44.5889C0.705753 44.2433 0.604706 43.8226 0.552734 43.1865C0.500287 42.5446 0.5 41.728 0.5 40.5996V6.40039C0.5 5.27203 0.500287 4.4554 0.552734 3.81348C0.604706 3.17741 0.705753 2.75672 0.881836 2.41113C1.21738 1.75262 1.75262 1.21738 2.41113 0.881836C2.75672 0.705753 3.17741 0.604706 3.81348 0.552734C4.4554 0.500287 5.27204 0.5 6.40039 0.5Z" stroke="#3A3A3A" stroke-opacity="0.64" style="mix-blend-mode:multiply"/>
</g>
<defs>
<filter id="filter0_diiiii_80_236" x="-2" y="0" width="183" height="48" filterUnits="userSpaceOnUse" color-interpolation-filters="sRGB">
<feFlood flood-opacity="0" result="BackgroundImageFix"/>
<feColorMatrix in="SourceAlpha" type="matrix" values="0 0 0 0 0 0 0 0 0 0 0 0 0 0 0 0 0 0 127 0" result="hardAlpha"/>
<feOffset dy="1"/>
<feComposite in2="hardAlpha" operator="out"/>
<feColorMatrix type="matrix" values="0 0 0 0 0 0 0 0 0 0 0 0 0 0 0 0 0 0 0.05 0"/>
<feBlend mode="normal" in2="BackgroundImageFix" result="effect1_dropShadow_80_236"/>
<feBlend mode="normal" in="SourceGraphic" in2="effect1_dropShadow_80_236" result="shape"/>
<feColorMatrix in="SourceAlpha" type="matrix" values="0 0 0 0 0 0 0 0 0 0 0 0 0 0 0 0 0 0 127 0" result="hardAlpha"/>
<feOffset dy="2"/>
<feComposite in2="hardAlpha" operator="arithmetic" k2="-1" k3="1"/>
<feColorMatrix type="matrix" values="0 0 0 0 1 0 0 0 0 1 0 0 0 0 1 0 0 0 0.1 0"/>
<feBlend mode="plus-lighter" in2="shape" result="effect2_innerShadow_80_236"/>
<feColorMatrix in="SourceAlpha" type="matrix" values="0 0 0 0 0 0 0 0 0 0 0 0 0 0 0 0 0 0 127 0" result="hardAlpha"/>
<feOffset dx="2"/>
<feGaussianBlur stdDeviation="1.5"/>
<feComposite in2="hardAlpha" operator="arithmetic" k2="-1" k3="1"/>
<feColorMatrix type="matrix" values="0 0 0 0 0.198112 0 0 0 0 0.198112 0 0 0 0 0.198112 0 0 0 0.12 0"/>
<feBlend mode="color-burn" in2="effect2_innerShadow_80_236" result="effect3_innerShadow_80_236"/>
<feColorMatrix in="SourceAlpha" type="matrix" values="0 0 0 0 0 0 0 0 0 0 0 0 0 0 0 0 0 0 127 0" result="hardAlpha"/>
<feOffset dx="-2"/>
<feGaussianBlur stdDeviation="1.5"/>
<feComposite in2="hardAlpha" operator="arithmetic" k2="-1" k3="1"/>
<feColorMatrix type="matrix" values="0 0 0 0 0.198112 0 0 0 0 0.198112 0 0 0 0 0.198112 0 0 0 0.12 0"/>
<feBlend mode="color-burn" in2="effect3_innerShadow_80_236" result="effect4_innerShadow_80_236"/>
<feColorMatrix in="SourceAlpha" type="matrix" values="0 0 0 0 0 0 0 0 0 0 0 0 0 0 0 0 0 0 127 0" result="hardAlpha"/>
<feOffset dx="2"/>
<feComposite in2="hardAlpha" operator="arithmetic" k2="-1" k3="1"/>
<feColorMatrix type="matrix" values="0 0 0 0 1 0 0 0 0 1 0 0 0 0 1 0 0 0 0.04 0"/>
<feBlend mode="plus-lighter" in2="effect4_innerShadow_80_236" result="effect5_innerShadow_80_236"/>
<feColorMatrix in="SourceAlpha" type="matrix" values="0 0 0 0 0 0 0 0 0 0 0 0 0 0 0 0 0 0 127 0" result="hardAlpha"/>
<feOffset dx="-2"/>
<feComposite in2="hardAlpha" operator="arithmetic" k2="-1" k3="1"/>
<feColorMatrix type="matrix" values="0 0 0 0 1 0 0 0 0 1 0 0 0 0 1 0 0 0 0.04 0"/>
<feBlend mode="plus-lighter" in2="effect5_innerShadow_80_236" result="effect6_innerShadow_80_236"/>
</filter>
<linearGradient id="paint0_linear_80_236" x1="89.5" y1="0" x2="89.5" y2="47" gradientUnits="userSpaceOnUse">
<stop stop-color="#A3C2EF"/>
<stop offset="0.53" stop-color="#67A1E9"/>
<stop offset="0.53" stop-color="#4392EA"/>
<stop offset="1" stop-color="#B5E2FF"/>
</linearGradient>
<linearGradient id="paint1_linear_80_236" x1="89.5" y1="0" x2="89.5" y2="47" gradientUnits="userSpaceOnUse">
<stop stop-color="#EFD1A3"/>
<stop offset="0.53" stop-color="#E9B567"/>
<stop offset="0.53" stop-color="#E99E2E"/>
<stop offset="1" stop-color="#FFE2B5"/>
</linearGradient>
<linearGradient id="paint2_linear_80_236" x1="89.5" y1="0" x2="89.5" y2="47" gradientUnits="userSpaceOnUse">
<stop stop-color="white"/>
<stop offset="0.53" stop-color="#F7F7F7"/>
<stop offset="0.53" stop-color="#F0F0F0"/>
<stop offset="1" stop-color="#EFEFEF"/>
</linearGradient>
</defs>
</svg>
