<svg width="60" height="60" viewBox="0 0 60 60" fill="none" xmlns="http://www.w3.org/2000/svg">
<path d="M0 4.39492L12.9549 49.9995C13.2774 51.137 13.5799 51.727 14.0074 52.362C14.1641 52.5904 14.3324 52.8104 14.5124 53.022C14.9457 53.5304 15.4374 53.9678 15.9874 54.3345C16.5949 54.742 17.2124 55.0495 17.8949 55.262C18.7048 55.512 19.4198 55.6045 20.3698 55.6045H31.1872L35.9822 39.0671H52.9771V48.3146C52.9771 48.3871 52.9484 48.4566 52.8974 48.5081C52.8464 48.5596 52.7771 48.5889 52.7046 48.5896H40.5047L38.4722 55.6045H52.6071C54.3995 55.6193 56.1347 54.9742 57.482 53.792C58.2832 53.1018 58.9237 52.2447 59.3586 51.2808C59.7935 50.3169 60.0122 49.2695 59.9995 48.2121V32.0372H30.6997L25.9023 48.5721H19.8423L9.28742 11.4099H16.5924L20.4573 25.0198H27.7498L21.8923 4.39492H0ZM38.7397 4.39492L32.7397 25.0198H59.9995V11.7949C60.0031 10.3292 59.5714 8.89557 58.7591 7.67562C57.9469 6.45567 56.7906 5.5044 55.437 4.94242C54.5405 4.57875 53.5821 4.39199 52.6146 4.39242L38.7397 4.39492ZM44.0146 11.4099H52.7046C52.7411 11.4099 52.7773 11.4171 52.811 11.4313C52.8447 11.4454 52.8752 11.4661 52.9008 11.4922C52.9264 11.5182 52.9466 11.5491 52.9601 11.5831C52.9736 11.617 52.9802 11.6533 52.9796 11.6899V17.9998H42.0947L44.0146 11.4099Z" fill="black" fill-opacity="0.5"/>
</svg>
