<svg width="60" height="60" viewBox="0 0 60 60" fill="none" xmlns="http://www.w3.org/2000/svg">
<path d="M40.7382 52.1981C40.1713 52.4731 39.5326 52.5638 38.9115 52.4576C38.2905 52.3513 37.7183 52.0534 37.2751 51.6056L18.0601 33.9844L9.69193 40.3706C9.31454 40.658 8.84821 40.8039 8.37429 40.7826C7.90038 40.7614 7.44897 40.5744 7.09881 40.2544L4.41381 37.8C4.20467 37.6081 4.03766 37.375 3.92336 37.1152C3.80905 36.8555 3.74993 36.5748 3.74976 36.291C3.74958 36.0072 3.80835 35.7265 3.92233 35.4666C4.03632 35.2067 4.20304 34.9733 4.41193 34.7812L11.6701 28.125L4.41193 21.4687C4.20304 21.2766 4.03632 21.0433 3.92233 20.7834C3.80835 20.5235 3.74958 20.2427 3.74976 19.9589C3.74993 19.6752 3.80905 19.3945 3.92336 19.1347C4.03766 18.875 4.20467 18.6418 4.41381 18.45L7.09881 15.9956C7.44897 15.6756 7.90038 15.4886 8.37429 15.4674C8.84821 15.4461 9.31454 15.5919 9.69193 15.8794L18.0601 22.2656L37.2751 4.64436C37.7183 4.19654 38.2905 3.89863 38.9115 3.79238C39.5326 3.68613 40.1713 3.77686 40.7382 4.05186L50.7751 8.90623C51.8288 9.41623 52.5001 10.4887 52.5001 11.6662V30H40.3201V17.0006L25.7401 28.125L40.3201 39.2494V30H52.5001V44.5837C52.5001 45.7612 51.8288 46.8337 50.7751 47.3437L40.7382 52.1981Z" fill="black" fill-opacity="0.5"/>
</svg>
