<svg width="60" height="60" viewBox="0 0 60 60" fill="none" xmlns="http://www.w3.org/2000/svg">
<path d="M8.06006 22.484L12.0601 38.484C12.1541 38.8598 12.3553 39.2001 12.6392 39.4637C12.923 39.7273 13.2773 39.9029 13.659 39.9689C14.0407 40.035 14.4333 39.9888 14.7893 39.836C15.1452 39.6832 15.4491 39.4303 15.6641 39.108L18.0001 35.604L20.3361 39.108C20.551 39.4303 20.8549 39.6832 21.2108 39.836C21.5668 39.9888 21.9595 40.035 22.3411 39.9689C22.7228 39.9029 23.0771 39.7273 23.361 39.4637C23.6448 39.2001 23.846 38.8598 23.9401 38.484L27.9401 22.484L24.0601 21.516L21.1561 33.128L19.6641 30.888C19.4814 30.6141 19.234 30.3895 18.9437 30.2341C18.6534 30.0788 18.3293 29.9975 18.0001 29.9975C17.6708 29.9975 17.3467 30.0788 17.0564 30.2341C16.7661 30.3895 16.5187 30.6141 16.3361 30.888L14.8441 33.128L11.9401 21.516L8.06006 22.484Z" fill="black" fill-opacity="0.5"/>
<path fill-rule="evenodd" clip-rule="evenodd" d="M14 0C12.4087 0 10.8826 0.632141 9.75736 1.75736C8.63214 2.88258 8 4.4087 8 6V12H6C4.4087 12 2.88258 12.6321 1.75736 13.7574C0.632141 14.8826 0 16.4087 0 18L0 42C0 43.5913 0.632141 45.1174 1.75736 46.2426C2.88258 47.3679 4.4087 48 6 48H8V54C8 55.5913 8.63214 57.1174 9.75736 58.2426C10.8826 59.3679 12.4087 60 14 60H54C55.5913 60 57.1174 59.3679 58.2426 58.2426C59.3679 57.1174 60 55.5913 60 54V6C60 4.4087 59.3679 2.88258 58.2426 1.75736C57.1174 0.632141 55.5913 0 54 0L14 0ZM6 16C5.46957 16 4.96086 16.2107 4.58579 16.5858C4.21071 16.9609 4 17.4696 4 18V42C4 42.5304 4.21071 43.0391 4.58579 43.4142C4.96086 43.7893 5.46957 44 6 44H30C30.5304 44 31.0391 43.7893 31.4142 43.4142C31.7893 43.0391 32 42.5304 32 42V18C32 17.4696 31.7893 16.9609 31.4142 16.5858C31.0391 16.2107 30.5304 16 30 16H6Z" fill="black" fill-opacity="0.5"/>
</svg>
